<?xml version="1.0" encoding="UTF-8"?>
<svg xmlns="http://www.w3.org/2000/svg" xmlns:xlink="http://www.w3.org/1999/xlink" viewBox="0 0 305.605 141.59375">
  <defs>
    <path id="wltr-W" d="M 105.28125 0 L 72 0 L 72 -81 L 71.515625 -81 L 49.125 0 L 14.5625 0 L 14.5625 -141.59375 L 47.84375 -141.59375 L 44.15625 -56.59375 L 44.953125 -56.59375 L 65.59375 -141.59375 L 95.84375 -141.59375 L 93.4375 -56.59375 L 93.921875 -56.59375 L 113.765625 -141.59375 L 146.40625 -141.59375 Z M 105.28125 0"/>
    <path id="wltr-L" d="M 8.3125 -141.59375 L 43.359375 -141.59375 L 43.359375 -40 L 72.484375 -40 L 72.484375 0 L 8.3125 0 Z M 8.3125 -141.59375"/>
    <path id="wltr-T" d="M 54.234375 0 L 20 0 L 20 -104.796875 L 0 -104.796875 L 0 -141.59375 L 74.234375 -141.59375 L 74.234375 -104.796875 L 54.234375 -104.796875 Z M 54.234375 0"/>
    <path id="wltr-R" d="M 44.484375 -50.796875 L 41.59375 -50.796875 L 41.59375 0 L 8.3125 0 L 8.3125 -141.59375 L 50.40625 -141.59375 C 56.90625 -141.59375 62.582031 -140.523438 67.4375 -138.390625 C 72.289062 -136.265625 76.265625 -133.203125 79.359375 -129.203125 C 82.453125 -125.203125 84.769531 -120.367188 86.3125 -114.703125 C 87.863281 -109.035156 88.640625 -102.664062 88.640625 -95.59375 C 88.640625 -90.800781 88.210938 -86.46875 87.359375 -82.59375 C 86.503906 -78.726562 85.4375 -75.296875 84.15625 -72.296875 C 82.875 -69.296875 81.429688 -66.796875 79.828125 -64.796875 C 78.234375 -62.796875 76.640625 -61.332031 75.046875 -60.40625 L 93.125 0 L 56.484375 0 Z M 41.59375 -105.40625 L 41.59375 -80.59375 L 44.484375 -80.59375 C 45.441406 -80.59375 46.503906 -80.757812 47.671875 -81.09375 C 48.847656 -81.425781 49.914062 -82.0625 50.875 -83 C 51.832031 -83.9375 52.628906 -85.203125 53.265625 -86.796875 C 53.910156 -88.398438 54.234375 -90.46875 54.234375 -93 C 54.234375 -95.664062 53.941406 -97.796875 53.359375 -99.390625 C 52.773438 -100.992188 52.03125 -102.257812 51.125 -103.1875 C 50.21875 -104.125 49.253906 -104.726562 48.234375 -105 C 47.222656 -105.269531 46.289062 -105.40625 45.4375 -105.40625 Z M 41.59375 -105.40625"/>
  </defs>
  <g fill="#4C4C6C">
    <use xlink:href="#wltr-W" x="-14.5601" y="141.59375"/>
    <use xlink:href="#wltr-L" x="100.9599" y="141.59375"/>
    <use xlink:href="#wltr-T" x="156.7999" y="141.59375"/>
    <use xlink:href="#wltr-R" x="212.4799" y="141.59375"/>
  </g>
</svg>
